<mxfile host="app.diagrams.net" modified="2023-03-25T20:39:47.260Z" agent="5.0 (Windows NT 10.0; Win64; x64) AppleWebKit/537.36 (KHTML, like Gecko) Chrome/111.0.0.0 Safari/537.36" etag="HOqHAQgwzggpWaVPayjq" version="21.0.8" type="github">
  <diagram name="第1頁" id="P9BM3nfEhgbrT5ptWXJF">
    <mxGraphModel dx="683" dy="366" grid="1" gridSize="10" guides="1" tooltips="1" connect="1" arrows="1" fold="1" page="1" pageScale="1" pageWidth="827" pageHeight="1169" math="0" shadow="0">
      <root>
        <mxCell id="0" />
        <mxCell id="1" parent="0" />
        <mxCell id="3KgX_dlSJIxUzlRzkm22-1" value="movie" style="rounded=0;whiteSpace=wrap;html=1;" vertex="1" parent="1">
          <mxGeometry x="350" y="370" width="70" height="30" as="geometry" />
        </mxCell>
        <mxCell id="3KgX_dlSJIxUzlRzkm22-2" value="title" style="ellipse;whiteSpace=wrap;html=1;" vertex="1" parent="1">
          <mxGeometry x="240" y="310" width="50" height="30" as="geometry" />
        </mxCell>
        <mxCell id="3KgX_dlSJIxUzlRzkm22-4" value="" style="endArrow=none;html=1;rounded=0;exitX=0.143;exitY=0;exitDx=0;exitDy=0;exitPerimeter=0;" edge="1" parent="1" source="3KgX_dlSJIxUzlRzkm22-1" target="3KgX_dlSJIxUzlRzkm22-2">
          <mxGeometry width="50" height="50" relative="1" as="geometry">
            <mxPoint x="380" y="420" as="sourcePoint" />
            <mxPoint x="430" y="370" as="targetPoint" />
          </mxGeometry>
        </mxCell>
        <mxCell id="3KgX_dlSJIxUzlRzkm22-5" value="release date" style="ellipse;whiteSpace=wrap;html=1;" vertex="1" parent="1">
          <mxGeometry x="290" y="270" width="60" height="30" as="geometry" />
        </mxCell>
        <mxCell id="3KgX_dlSJIxUzlRzkm22-6" value="" style="endArrow=none;html=1;rounded=0;entryX=0.5;entryY=1;entryDx=0;entryDy=0;exitX=0.25;exitY=0;exitDx=0;exitDy=0;" edge="1" parent="1" source="3KgX_dlSJIxUzlRzkm22-1" target="3KgX_dlSJIxUzlRzkm22-5">
          <mxGeometry width="50" height="50" relative="1" as="geometry">
            <mxPoint x="370" y="360" as="sourcePoint" />
            <mxPoint x="326" y="328" as="targetPoint" />
          </mxGeometry>
        </mxCell>
        <mxCell id="3KgX_dlSJIxUzlRzkm22-7" value="rating" style="ellipse;whiteSpace=wrap;html=1;" vertex="1" parent="1">
          <mxGeometry x="360" y="260" width="60" height="30" as="geometry" />
        </mxCell>
        <mxCell id="3KgX_dlSJIxUzlRzkm22-8" value="" style="endArrow=none;html=1;rounded=0;exitX=0.386;exitY=-0.057;exitDx=0;exitDy=0;exitPerimeter=0;" edge="1" parent="1" source="3KgX_dlSJIxUzlRzkm22-1" target="3KgX_dlSJIxUzlRzkm22-7">
          <mxGeometry width="50" height="50" relative="1" as="geometry">
            <mxPoint x="378" y="380" as="sourcePoint" />
            <mxPoint x="370" y="310" as="targetPoint" />
          </mxGeometry>
        </mxCell>
        <mxCell id="3KgX_dlSJIxUzlRzkm22-9" value="running time" style="ellipse;whiteSpace=wrap;html=1;" vertex="1" parent="1">
          <mxGeometry x="430" y="260" width="60" height="30" as="geometry" />
        </mxCell>
        <mxCell id="3KgX_dlSJIxUzlRzkm22-10" value="" style="endArrow=none;html=1;rounded=0;entryX=0.299;entryY=1.038;entryDx=0;entryDy=0;entryPerimeter=0;exitX=0.5;exitY=0;exitDx=0;exitDy=0;" edge="1" parent="1" source="3KgX_dlSJIxUzlRzkm22-1" target="3KgX_dlSJIxUzlRzkm22-9">
          <mxGeometry width="50" height="50" relative="1" as="geometry">
            <mxPoint x="390" y="360" as="sourcePoint" />
            <mxPoint x="430" y="280" as="targetPoint" />
          </mxGeometry>
        </mxCell>
        <mxCell id="3KgX_dlSJIxUzlRzkm22-11" value="director" style="ellipse;whiteSpace=wrap;html=1;" vertex="1" parent="1">
          <mxGeometry x="500" y="270" width="60" height="30" as="geometry" />
        </mxCell>
        <mxCell id="3KgX_dlSJIxUzlRzkm22-12" value="" style="endArrow=none;html=1;rounded=0;entryX=0.148;entryY=0.975;entryDx=0;entryDy=0;entryPerimeter=0;exitX=0.814;exitY=-0.073;exitDx=0;exitDy=0;exitPerimeter=0;" edge="1" parent="1" source="3KgX_dlSJIxUzlRzkm22-1" target="3KgX_dlSJIxUzlRzkm22-11">
          <mxGeometry width="50" height="50" relative="1" as="geometry">
            <mxPoint x="380" y="330" as="sourcePoint" />
            <mxPoint x="430" y="280" as="targetPoint" />
          </mxGeometry>
        </mxCell>
        <mxCell id="3KgX_dlSJIxUzlRzkm22-13" value="ISA" style="triangle;whiteSpace=wrap;html=1;direction=north;" vertex="1" parent="1">
          <mxGeometry x="350" y="440" width="70" height="40" as="geometry" />
        </mxCell>
        <mxCell id="3KgX_dlSJIxUzlRzkm22-14" value="" style="endArrow=none;html=1;rounded=0;entryX=0.5;entryY=1;entryDx=0;entryDy=0;exitX=1;exitY=0.5;exitDx=0;exitDy=0;" edge="1" parent="1" source="3KgX_dlSJIxUzlRzkm22-13" target="3KgX_dlSJIxUzlRzkm22-1">
          <mxGeometry width="50" height="50" relative="1" as="geometry">
            <mxPoint x="380" y="480" as="sourcePoint" />
            <mxPoint x="430" y="430" as="targetPoint" />
          </mxGeometry>
        </mxCell>
        <mxCell id="3KgX_dlSJIxUzlRzkm22-15" value="" style="endArrow=none;html=1;rounded=0;entryX=0.055;entryY=0.025;entryDx=0;entryDy=0;entryPerimeter=0;exitX=0.5;exitY=0;exitDx=0;exitDy=0;" edge="1" parent="1" source="3KgX_dlSJIxUzlRzkm22-17" target="3KgX_dlSJIxUzlRzkm22-13">
          <mxGeometry width="50" height="50" relative="1" as="geometry">
            <mxPoint x="290" y="540" as="sourcePoint" />
            <mxPoint x="430" y="430" as="targetPoint" />
          </mxGeometry>
        </mxCell>
        <mxCell id="3KgX_dlSJIxUzlRzkm22-16" value="" style="endArrow=none;html=1;rounded=0;entryX=-0.017;entryY=0.971;entryDx=0;entryDy=0;entryPerimeter=0;exitX=0.5;exitY=0;exitDx=0;exitDy=0;" edge="1" parent="1" source="3KgX_dlSJIxUzlRzkm22-18" target="3KgX_dlSJIxUzlRzkm22-13">
          <mxGeometry width="50" height="50" relative="1" as="geometry">
            <mxPoint x="440" y="520" as="sourcePoint" />
            <mxPoint x="362" y="488" as="targetPoint" />
          </mxGeometry>
        </mxCell>
        <mxCell id="3KgX_dlSJIxUzlRzkm22-17" value="domestic&amp;nbsp;movies" style="rounded=0;whiteSpace=wrap;html=1;" vertex="1" parent="1">
          <mxGeometry x="270" y="540" width="110" height="30" as="geometry" />
        </mxCell>
        <mxCell id="3KgX_dlSJIxUzlRzkm22-18" value="foreign&amp;nbsp;movies" style="rounded=0;whiteSpace=wrap;html=1;" vertex="1" parent="1">
          <mxGeometry x="405" y="540" width="110" height="30" as="geometry" />
        </mxCell>
        <mxCell id="3KgX_dlSJIxUzlRzkm22-19" value="ISA" style="triangle;whiteSpace=wrap;html=1;direction=north;" vertex="1" parent="1">
          <mxGeometry x="290" y="640" width="70" height="40" as="geometry" />
        </mxCell>
        <mxCell id="3KgX_dlSJIxUzlRzkm22-20" value="" style="endArrow=none;html=1;rounded=0;entryX=0.5;entryY=1;entryDx=0;entryDy=0;exitX=1;exitY=0.5;exitDx=0;exitDy=0;" edge="1" parent="1" source="3KgX_dlSJIxUzlRzkm22-19" target="3KgX_dlSJIxUzlRzkm22-17">
          <mxGeometry width="50" height="50" relative="1" as="geometry">
            <mxPoint x="310" y="700" as="sourcePoint" />
            <mxPoint x="160" y="580" as="targetPoint" />
          </mxGeometry>
        </mxCell>
        <mxCell id="3KgX_dlSJIxUzlRzkm22-21" value="" style="endArrow=none;html=1;rounded=0;entryX=-0.005;entryY=0.175;entryDx=0;entryDy=0;entryPerimeter=0;exitX=0.5;exitY=0;exitDx=0;exitDy=0;" edge="1" parent="1" source="3KgX_dlSJIxUzlRzkm22-22" target="3KgX_dlSJIxUzlRzkm22-19">
          <mxGeometry width="50" height="50" relative="1" as="geometry">
            <mxPoint x="240" y="742" as="sourcePoint" />
            <mxPoint x="302" y="680" as="targetPoint" />
          </mxGeometry>
        </mxCell>
        <mxCell id="3KgX_dlSJIxUzlRzkm22-22" value="comedy" style="rounded=0;whiteSpace=wrap;html=1;" vertex="1" parent="1">
          <mxGeometry x="160" y="780" width="60" height="30" as="geometry" />
        </mxCell>
        <mxCell id="3KgX_dlSJIxUzlRzkm22-23" value="" style="endArrow=none;html=1;rounded=0;exitX=0.5;exitY=0;exitDx=0;exitDy=0;entryX=0.031;entryY=0.304;entryDx=0;entryDy=0;entryPerimeter=0;" edge="1" parent="1" source="3KgX_dlSJIxUzlRzkm22-24" target="3KgX_dlSJIxUzlRzkm22-19">
          <mxGeometry width="50" height="50" relative="1" as="geometry">
            <mxPoint x="315" y="772.32" as="sourcePoint" />
            <mxPoint x="290" y="710" as="targetPoint" />
          </mxGeometry>
        </mxCell>
        <mxCell id="3KgX_dlSJIxUzlRzkm22-24" value="drama" style="rounded=0;whiteSpace=wrap;html=1;" vertex="1" parent="1">
          <mxGeometry x="235" y="780" width="60" height="30" as="geometry" />
        </mxCell>
        <mxCell id="3KgX_dlSJIxUzlRzkm22-25" value="" style="endArrow=none;html=1;rounded=0;exitX=0.5;exitY=0;exitDx=0;exitDy=0;entryX=0;entryY=0.5;entryDx=0;entryDy=0;" edge="1" parent="1" source="3KgX_dlSJIxUzlRzkm22-26" target="3KgX_dlSJIxUzlRzkm22-19">
          <mxGeometry width="50" height="50" relative="1" as="geometry">
            <mxPoint x="325" y="782.32" as="sourcePoint" />
            <mxPoint x="301" y="689" as="targetPoint" />
          </mxGeometry>
        </mxCell>
        <mxCell id="3KgX_dlSJIxUzlRzkm22-26" value="action" style="rounded=0;whiteSpace=wrap;html=1;" vertex="1" parent="1">
          <mxGeometry x="310" y="780" width="60" height="30" as="geometry" />
        </mxCell>
        <mxCell id="3KgX_dlSJIxUzlRzkm22-27" value="" style="endArrow=none;html=1;rounded=0;exitX=0.5;exitY=0;exitDx=0;exitDy=0;entryX=0.055;entryY=0.991;entryDx=0;entryDy=0;entryPerimeter=0;" edge="1" parent="1" source="3KgX_dlSJIxUzlRzkm22-28" target="3KgX_dlSJIxUzlRzkm22-19">
          <mxGeometry width="50" height="50" relative="1" as="geometry">
            <mxPoint x="335" y="792.32" as="sourcePoint" />
            <mxPoint x="311" y="699" as="targetPoint" />
          </mxGeometry>
        </mxCell>
        <mxCell id="3KgX_dlSJIxUzlRzkm22-28" value="horror" style="rounded=0;whiteSpace=wrap;html=1;" vertex="1" parent="1">
          <mxGeometry x="390" y="780" width="60" height="30" as="geometry" />
        </mxCell>
        <mxCell id="3KgX_dlSJIxUzlRzkm22-31" value="funniness" style="ellipse;whiteSpace=wrap;html=1;" vertex="1" parent="1">
          <mxGeometry x="120" y="860" width="60" height="30" as="geometry" />
        </mxCell>
        <mxCell id="3KgX_dlSJIxUzlRzkm22-33" value="" style="endArrow=none;html=1;rounded=0;entryX=0.5;entryY=1;entryDx=0;entryDy=0;exitX=0.5;exitY=0;exitDx=0;exitDy=0;" edge="1" parent="1" source="3KgX_dlSJIxUzlRzkm22-31" target="3KgX_dlSJIxUzlRzkm22-22">
          <mxGeometry width="50" height="50" relative="1" as="geometry">
            <mxPoint x="380" y="760" as="sourcePoint" />
            <mxPoint x="430" y="710" as="targetPoint" />
          </mxGeometry>
        </mxCell>
        <mxCell id="3KgX_dlSJIxUzlRzkm22-34" value="description" style="ellipse;whiteSpace=wrap;html=1;" vertex="1" parent="1">
          <mxGeometry x="220" y="855" width="80" height="40" as="geometry" />
        </mxCell>
        <mxCell id="3KgX_dlSJIxUzlRzkm22-35" value="" style="endArrow=none;html=1;rounded=0;entryX=0.25;entryY=1;entryDx=0;entryDy=0;exitX=0.433;exitY=-0.001;exitDx=0;exitDy=0;exitPerimeter=0;" edge="1" parent="1" source="3KgX_dlSJIxUzlRzkm22-34" target="3KgX_dlSJIxUzlRzkm22-24">
          <mxGeometry width="50" height="50" relative="1" as="geometry">
            <mxPoint x="380" y="760" as="sourcePoint" />
            <mxPoint x="430" y="710" as="targetPoint" />
          </mxGeometry>
        </mxCell>
        <mxCell id="3KgX_dlSJIxUzlRzkm22-36" value="critic" style="rounded=0;whiteSpace=wrap;html=1;" vertex="1" parent="1">
          <mxGeometry x="600" y="460" width="50" height="20" as="geometry" />
        </mxCell>
        <mxCell id="3KgX_dlSJIxUzlRzkm22-37" value="name" style="ellipse;whiteSpace=wrap;html=1;" vertex="1" parent="1">
          <mxGeometry x="540" y="400" width="40" height="30" as="geometry" />
        </mxCell>
        <mxCell id="3KgX_dlSJIxUzlRzkm22-38" value="" style="endArrow=none;html=1;rounded=0;entryX=0.5;entryY=1;entryDx=0;entryDy=0;exitX=0;exitY=0.5;exitDx=0;exitDy=0;" edge="1" parent="1" source="3KgX_dlSJIxUzlRzkm22-36" target="3KgX_dlSJIxUzlRzkm22-37">
          <mxGeometry width="50" height="50" relative="1" as="geometry">
            <mxPoint x="380" y="480" as="sourcePoint" />
            <mxPoint x="430" y="430" as="targetPoint" />
          </mxGeometry>
        </mxCell>
        <mxCell id="3KgX_dlSJIxUzlRzkm22-39" value="phone number" style="ellipse;whiteSpace=wrap;html=1;" vertex="1" parent="1">
          <mxGeometry x="590" y="360" width="60" height="40" as="geometry" />
        </mxCell>
        <mxCell id="3KgX_dlSJIxUzlRzkm22-40" value="" style="endArrow=none;html=1;rounded=0;entryX=0.5;entryY=1;entryDx=0;entryDy=0;exitX=0.25;exitY=0;exitDx=0;exitDy=0;" edge="1" parent="1" target="3KgX_dlSJIxUzlRzkm22-39" source="3KgX_dlSJIxUzlRzkm22-36">
          <mxGeometry width="50" height="50" relative="1" as="geometry">
            <mxPoint x="650" y="440" as="sourcePoint" />
            <mxPoint x="480" y="400" as="targetPoint" />
          </mxGeometry>
        </mxCell>
      </root>
    </mxGraphModel>
  </diagram>
</mxfile>
